<svg xmlns="http://www.w3.org/2000/svg" width="960" height="600" viewBox="0 0 960 600"><style>text{font-family:system-ui,-apple-system,'Microsoft YaHei',sans-serif;fill:#26362c}.title{font-size:32px;font-weight:700}.node{font-size:21px;font-weight:600}.number{font-size:13px;letter-spacing:1px}.caption{font-size:15px}</style><rect width="960" height="600" fill="#f6f3e9"/><path d="M40 145H920M40 550H920" stroke="#304b37" stroke-width="2"/><text x="50" y="58" class="number">WORKBENCH / RESPONSIBILITY STRUCTURE</text><text x="50" y="110" class="title"><tspan x="50" dy="0">危机曙光</tspan></text><g><rect x="70" y="202" width="245" height="108" rx="12" fill="#cadac6" stroke="#28372e" stroke-width="2"/><text x="90" y="229" class="number">01</text><text x="90" y="259" class="node"><tspan x="90" dy="0">SOC 项目 PC 端</tspan><tspan x="90" dy="28">移植</tspan></text></g><g><rect x="350" y="202" width="245" height="108" rx="12" fill="#f3da9c" stroke="#28372e" stroke-width="2"/><text x="370" y="229" class="number">02</text><text x="370" y="259" class="node"><tspan x="370" dy="0">UI/UE 重构</tspan></text></g><g><rect x="630" y="202" width="245" height="108" rx="12" fill="#d3cae8" stroke="#28372e" stroke-width="2"/><text x="650" y="229" class="number">03</text><text x="650" y="259" class="node"><tspan x="650" dy="0">HUD 与操作逻辑</tspan></text></g><g><rect x="208" y="370" width="245" height="108" rx="12" fill="#efc9b0" stroke="#28372e" stroke-width="2"/><text x="228" y="397" class="number">04</text><text x="228" y="427" class="node"><tspan x="228" dy="0">家园及公会调优</tspan></text></g><g><rect x="488" y="370" width="245" height="108" rx="12" fill="#bfdae1" stroke="#28372e" stroke-width="2"/><text x="508" y="397" class="number">05</text><text x="508" y="427" class="node"><tspan x="508" dy="0">问题整理与跨岗位推进</tspan></text></g><text x="50" y="579" class="caption">原创职责结构示意 · 非游戏实机画面</text></svg>
