<svg xmlns="http://www.w3.org/2000/svg" width="960" height="600" viewBox="0 0 960 600"><style>text{font-family:system-ui,-apple-system,'Microsoft YaHei',sans-serif;fill:#153b45}.title{font-size:32px;font-weight:700}.node{font-size:21px;font-weight:600}.number{font-size:13px;letter-spacing:1px}.caption{font-size:15px}</style><rect width="960" height="600" fill="#e9f0f6"/><path d="M40 145H920M40 550H920" stroke="#174b55" stroke-width="2"/><text x="50" y="58" class="number">PRODUCER / RESPONSIBILITY STRUCTURE</text><text x="50" y="110" class="title"><tspan x="50" dy="0">制作任务档案</tspan></text><g transform="translate(642 74)"><circle cx="0" cy="0" r="10" fill="#174b55"/><circle cx="31" cy="0" r="10" fill="#174b55"/><circle cx="62" cy="0" r="10" fill="#174b55"/><circle cx="93" cy="0" r="10" fill="#174b55"/><circle cx="124" cy="0" r="10" fill="#174b55"/><circle cx="155" cy="0" r="10" fill="#174b55"/><text x="0" y="32" class="number">PROJECT TEAM / 6 人</text></g><g><rect x="88" y="230" width="330" height="108" rx="12" fill="#f8fbfe" stroke="#174b55" stroke-width="2"/><text x="108" y="257" class="number">01</text><text x="108" y="287" class="node"><tspan x="108" dy="0">整体方向</tspan></text></g><g><rect x="508" y="230" width="330" height="108" rx="12" fill="#f8fbfe" stroke="#174b55" stroke-width="2"/><text x="528" y="257" class="number">02</text><text x="528" y="287" class="node"><tspan x="528" dy="0">玩法与系统</tspan></text></g><g><rect x="88" y="382" width="330" height="108" rx="12" fill="#f8fbfe" stroke="#174b55" stroke-width="2"/><text x="108" y="409" class="number">03</text><text x="108" y="439" class="node"><tspan x="108" dy="0">团队与排期</tspan></text></g><g><rect x="508" y="382" width="330" height="108" rx="12" fill="#f8fbfe" stroke="#174b55" stroke-width="2"/><text x="528" y="409" class="number">04</text><text x="528" y="439" class="node"><tspan x="528" dy="0">数据迭代</tspan></text></g><text x="50" y="579" class="caption">原创职责结构示意 · 非游戏实机画面</text></svg>
